<svg width="295" height="81" viewBox="0 0 295 81" fill="none" xmlns="http://www.w3.org/2000/svg">
<path d="M37.1476 80.398H8.5542L24.6309 0C40.4224 0 50.2683 14.7803 46.6229 33.0125L37.1476 80.398Z" fill="#D5002C"/>
<path d="M73.6128 80.398H45.0194L61.0961 0C76.8877 0 86.7336 14.7803 83.0881 33.0125L73.6128 80.398Z" fill="#D5002C"/>
<path d="M21.7124 0L5.65714 80.3877H4.09811L20.1694 0H21.7124Z" fill="#D5002C"/>
<path d="M17.6143 0L1.55902 80.3877H0L16.0713 0H17.6143Z" fill="#D5002C"/>
<path d="M91.2358 69.0819L100.056 24.9819H106.797L126.894 59.1909L124.311 58.8759L131.052 24.9819H139.179L130.359 69.0819H123.618L103.584 34.8729L106.167 35.1879L99.3628 69.0819H91.2358ZM154.902 43.3149H176.889L175.566 50.0559H153.579L154.902 43.3149ZM151.752 62.2149H176.7L175.314 69.0819H142.239L151.059 24.9819H183.252L181.866 31.8489H157.8L151.752 62.2149ZM194.161 69.0819L188.365 24.9819H196.492L201.658 64.7979H197.437L218.92 24.9819H226.543L231.646 64.7979H227.677L248.971 24.9819H257.098L233.725 69.0819H224.968L220.054 33.1719H222.511L202.918 69.0819H194.161ZM269.377 69.7119C267.067 69.7119 264.82 69.4809 262.636 69.0189C260.494 68.5569 258.52 67.9479 256.714 67.1919C254.95 66.3939 253.48 65.5119 252.304 64.5459L255.769 58.1199C256.987 59.1279 258.373 59.9889 259.927 60.7029C261.481 61.4169 263.119 61.9629 264.841 62.3409C266.605 62.7189 268.369 62.9079 270.133 62.9079C272.275 62.9079 274.144 62.6559 275.74 62.1519C277.336 61.6479 278.554 60.9339 279.394 60.0099C280.276 59.0859 280.717 57.9729 280.717 56.6709C280.717 55.4949 280.318 54.5499 279.52 53.8359C278.722 53.0799 277.651 52.4709 276.307 52.0089C275.005 51.5049 273.556 51.0429 271.96 50.6229C270.406 50.1609 268.831 49.6569 267.235 49.1109C265.639 48.5229 264.19 47.8089 262.888 46.9689C261.586 46.0869 260.515 44.9739 259.675 43.6299C258.877 42.2859 258.478 40.6059 258.478 38.5899C258.478 35.6919 259.276 33.1929 260.872 31.0929C262.51 28.9509 264.757 27.2919 267.613 26.1159C270.511 24.9399 273.871 24.3519 277.693 24.3519C280.549 24.3519 283.258 24.6669 285.82 25.2969C288.382 25.9269 290.587 26.8509 292.435 28.0689L289.222 34.5579C287.584 33.4659 285.736 32.6259 283.678 32.0379C281.62 31.4499 279.478 31.1559 277.252 31.1559C275.068 31.1559 273.178 31.4289 271.582 31.9749C269.986 32.5209 268.768 33.2769 267.928 34.2429C267.088 35.2089 266.647 36.3429 266.605 37.6449C266.605 38.8629 267.004 39.8499 267.802 40.6059C268.6 41.3199 269.65 41.9289 270.952 42.4329C272.254 42.9369 273.703 43.4199 275.299 43.8819C276.895 44.3019 278.47 44.7849 280.024 45.3309C281.62 45.8769 283.09 46.5699 284.434 47.4099C285.778 48.2499 286.849 49.3209 287.647 50.6229C288.445 51.8829 288.844 53.4789 288.844 55.4109C288.844 58.3089 288.025 60.8289 286.387 62.9709C284.791 65.1129 282.523 66.7719 279.583 67.9479C276.685 69.1239 273.283 69.7119 269.377 69.7119Z" fill="#D5002C"/>
</svg>
