<svg width="51" height="50" viewBox="0 0 51 50" fill="none" xmlns="http://www.w3.org/2000/svg">
<path fill-rule="evenodd" clip-rule="evenodd" d="M36.0875 14.8441C35.2894 12.8565 34.1051 11.047 32.603 9.52015C31.1009 7.99335 29.311 6.77962 27.3367 5.94921C25.3624 5.11881 23.243 4.68822 21.1012 4.68238C18.9594 4.67654 16.8377 5.09555 14.8589 5.91517C12.8801 6.73478 11.0836 7.93873 9.57319 9.45731C8.06281 10.9759 6.86862 12.779 6.05974 14.7622C5.25086 16.7454 4.84335 18.8693 4.8608 21.011C4.87825 23.1528 5.32031 25.2698 6.1614 27.2396C7.83632 31.1621 10.9908 34.2656 14.9401 35.8764C18.8894 37.4871 23.3146 37.4751 27.2551 35.843C31.1956 34.2108 34.3332 31.0903 35.9869 27.1587C37.6405 23.2272 37.6767 18.8021 36.0875 14.8441ZM17.0195 0.404282C19.7297 -0.134781 22.5195 -0.13476 25.2296 0.404344C27.9398 0.943448 30.5172 2.01108 32.8148 3.54628C35.1123 5.08147 37.085 7.05417 38.6202 9.35175C40.1553 11.6493 41.2229 14.2268 41.762 16.9369C42.301 19.6471 42.301 22.4369 41.7619 25.147C41.2228 27.8572 40.1552 30.4346 38.62 32.7322C37.0848 35.0297 35.1121 37.0024 32.8145 38.5376C30.5169 40.0727 27.9395 41.1403 25.2293 41.6794C19.7559 42.7681 14.0742 41.6379 9.43409 38.5374C4.79398 35.4369 1.57557 30.6201 0.486886 25.1467C-0.601801 19.6733 0.528408 13.9916 3.62888 9.35148C6.72935 4.71137 11.5461 1.49297 17.0195 0.404282ZM38.0285 37.9459C38.4827 37.4923 39.0983 37.2375 39.7402 37.2375C40.3821 37.2375 40.9977 37.4923 41.4519 37.9459L49.4324 45.9231C49.8603 46.3823 50.0932 46.9897 50.0821 47.6172C50.0711 48.2447 49.8169 48.8434 49.3731 49.2872C48.9293 49.731 48.3305 49.9852 47.703 49.9963C47.0755 50.0074 46.4682 49.7745 46.009 49.3466L38.0285 41.3693C37.5749 40.9151 37.3201 40.2995 37.3201 39.6576C37.3201 39.0157 37.5749 38.4001 38.0285 37.9459Z" fill="black"/>
</svg>
