<svg width="65" height="38" viewBox="0 0 65 38" fill="none" xmlns="http://www.w3.org/2000/svg">
<path d="M2.16667 0.477062L62.8334 0.477059C63.2358 0.477059 63.6302 0.584866 63.9725 0.788396C64.3148 0.991925 64.5914 1.28314 64.7714 1.6294C64.9513 1.97567 65.0275 2.3633 64.9914 2.74888C64.9552 3.13445 64.8082 3.50272 64.5668 3.81243L52.5418 19.2385L64.5668 34.6646C64.8082 34.9743 64.9552 35.3426 64.9914 35.7282C65.0275 36.1138 64.9513 36.5014 64.7714 36.8477C64.5914 37.1939 64.3148 37.4851 63.9725 37.6887C63.6302 37.8922 63.2358 38 62.8334 38L2.16667 38C1.59203 38 1.04093 37.7804 0.634603 37.3894C0.228273 36.9985 -5.79917e-08 36.4683 -7.89235e-08 35.9154L-1.3417e-06 2.56167C-1.36263e-06 2.0088 0.228272 1.47857 0.634602 1.08763C1.04093 0.69669 1.59203 0.477062 2.16667 0.477062Z" fill="#D5002C"/>
</svg>
